<?xml version="1.0" encoding="UTF-8"?>
<svg version="1.1" viewBox="0 0 156.07 50.875" xmlns="http://www.w3.org/2000/svg" xmlns:cc="http://creativecommons.org/ns#" xmlns:dc="http://purl.org/dc/elements/1.1/" xmlns:rdf="http://www.w3.org/1999/02/22-rdf-syntax-ns#">
 <defs>
  <clipPath id="clipPath821">
   <path d="m109.43 213.97-44.172-42.019c-4.79-4.553-9.724-8.507-13.063-14.291-2.403-4.163-5.014-10.379-5.209-17.955-0.029-1.11 0.013-2.255 0.094-3.42l45.091 38.302c3.069 2.604 6.841 5.26 11.145 4.268 3.828-0.882 6.198-4.908 7.714-10.745 0 0 6.272-31.686 7.329-34.851 1.055-3.162 4.155-1.23 4.155-1.23l39.918 35.123c-2.618 2.539-5.391 4.949-8.054 7.483l-41.458 39.441c-0.436 0.497-1.04 0.735-1.649 0.735-0.678 0-1.364-0.293-1.841-0.841"/>
  </clipPath>
  <linearGradient id="linearGradient831" x2="1" gradientTransform="matrix(102.32 -88.947 88.947 102.32 59.832 211.46)" gradientUnits="userSpaceOnUse">
   <stop stop-color="#2aa4ff" offset="0"/>
   <stop stop-color="#003cbf" offset="1"/>
  </linearGradient>
  <clipPath id="clipPath841">
   <path d="m118.46 105.66c-2.871-2.29-5.393-2.457-7.46-1.689-4.9 1.824-6.109 5.986-7.001 10.384l-7.059 34.909c-1.113 2.617-3.367 1.829-3.367 1.829l-38.921-33.644c1.063-1.241 2.207-2.472 3.444-3.777l26.88-28.386c15.973-16.871 32.642-20.981 49.749-2.915l30.117 31.805c4.999 5.276 8.143 9.466 9.78 16.837 0.603 2.712 0.862 5.312 0.862 7.771 0 5.355-1.227 10.05-2.785 13.879-13.338-11.7-47.54-41.656-54.239-47.003"/>
  </clipPath>
  <linearGradient id="linearGradient851" x2="1" gradientTransform="matrix(112.57 -97.858 97.858 112.57 52.181 177.74)" gradientUnits="userSpaceOnUse">
   <stop stop-color="#2aa4ff" offset="0"/>
   <stop stop-color="#003cbf" offset="1"/>
  </linearGradient>
  <clipPath id="clipPath861">
   <path d="m109.57 208.54-40.802-38.811c-4.425-4.211-8.984-7.86-12.069-13.204-2.171-3.76-4.51-9.342-4.782-16.129l40.257 34.195c3.069 2.604 6.841 5.26 11.145 4.268 3.828-0.882 6.198-4.908 7.714-10.745 0 0 6.272-31.686 7.329-34.851 1.055-3.162 4.155-1.23 4.155-1.23l5.114 4.501c14.867 20.209 14.301 43.996 14.292 44.391l-29.13 27.712c-0.4 0.463-0.956 0.68-1.521 0.68-0.626 0-1.261-0.27-1.702-0.777"/>
  </clipPath>
  <clipPath id="clipPath869">
   <path d="m12.417 254.48h169.58v-169.55h-169.58z"/>
  </clipPath>
  <clipPath id="clipPath873">
   <path d="m12.418 254.48h169.58v-169.55h-169.58z"/>
  </clipPath>
  <clipPath id="clipPath877">
   <path d="m100.56 254.48 81.439-87.704-88.14-81.843-81.44 87.704z"/>
  </clipPath>
  <linearGradient id="linearGradient883" x2="1" gradientTransform="matrix(96.244 -103.65 103.65 96.244 97.986 168.87)" gradientUnits="userSpaceOnUse">
   <stop stop-color="#231f20" offset="0"/>
   <stop stop-color="#fff" offset="1"/>
  </linearGradient>
  <mask id="mask885" x="0" y="0" width="1" height="1" maskUnits="userSpaceOnUse">
   <g clip-path="url(#clipPath869)">
    <path d="m12.417 254.48h169.58v-169.55h-169.58z"/>
    <g clip-path="url(#clipPath873)">
     <g clip-path="url(#clipPath877)">
      <path d="m100.56 254.48 81.439-87.704-88.14-81.843-81.44 87.704z" fill="url(#linearGradient883)"/>
     </g>
    </g>
   </g>
  </mask>
  <clipPath id="clipPath917">
   <path d="m12.417 254.48h169.58v-169.55h-169.58z"/>
  </clipPath>
  <clipPath id="clipPath921">
   <path d="m100.56 254.48 81.439-87.704-88.138-81.844-81.44 87.705z"/>
  </clipPath>
  <clipPath id="clipPath925">
   <path d="m-32768 32767h65535v-65535h-65535z"/>
  </clipPath>
  <linearGradient id="linearGradient933" x2="1" gradientTransform="matrix(96.244 -103.65 103.65 96.244 50.899 219.58)" gradientUnits="userSpaceOnUse">
   <stop stop-color="#fff" offset="0"/>
   <stop stop-color="#fff" stop-opacity=".099992" offset=".91372"/>
   <stop stop-color="#fff" stop-opacity=".099992" offset="1"/>
  </linearGradient>
  <mask id="mask935" x="0" y="0" width="1" height="1" maskUnits="userSpaceOnUse">
   <g clip-path="url(#clipPath925)">
    <path d="m-32768 32767h65535v-65535h-65535z" fill="url(#linearGradient933)"/>
   </g>
  </mask>
  <linearGradient id="linearGradient953" x2="1" gradientTransform="matrix(96.244 -103.65 103.65 96.244 50.899 219.58)" gradientUnits="userSpaceOnUse">
   <stop stop-color="#2aa4ff" offset="0"/>
   <stop stop-color="#fff" offset=".91372"/>
   <stop stop-color="#fff" offset="1"/>
  </linearGradient>
  <clipPath id="clipPath979">
   <path d="m93.573 151.1-35.482-30.672c1.216-1.508 2.571-2.966 4.058-4.534l6.859-7.247c14.03 0.716 25.362 3.697 34.515 8.07l-6.583 32.554c-0.696 1.635-1.836 1.941-2.594 1.941-0.457 0-0.773-0.112-0.773-0.112"/>
  </clipPath>
  <clipPath id="clipPath987">
   <path d="m36.867 173.86h87.88v-87.872h-87.88z"/>
  </clipPath>
  <clipPath id="clipPath991">
   <path d="m36.867 173.86h87.88v-87.872h-87.88z"/>
  </clipPath>
  <clipPath id="clipPath995">
   <path d="m82.49 173.86 42.26-45.51-45.62-42.362-42.259 45.51z"/>
  </clipPath>
  <linearGradient id="linearGradient1001" x2="1" gradientTransform="matrix(96.164 -103.56 103.56 96.164 69.354 142.27)" gradientUnits="userSpaceOnUse">
   <stop stop-color="#231f20" offset="0"/>
   <stop stop-color="#fff" offset="1"/>
  </linearGradient>
  <mask id="mask1003" x="0" y="0" width="1" height="1" maskUnits="userSpaceOnUse">
   <g clip-path="url(#clipPath987)">
    <path d="m36.867 173.86h87.88v-87.872h-87.88z"/>
    <g clip-path="url(#clipPath991)">
     <g clip-path="url(#clipPath995)">
      <path d="m82.49 173.86 42.26-45.51-45.62-42.362-42.259 45.51z" fill="url(#linearGradient1001)"/>
     </g>
    </g>
   </g>
  </mask>
  <clipPath id="clipPath1035">
   <path d="m36.867 173.86h87.88v-87.872h-87.88z"/>
  </clipPath>
  <clipPath id="clipPath1039">
   <path d="m82.487 173.86 42.26-45.51-45.62-42.362-42.26 45.51z"/>
  </clipPath>
  <clipPath id="clipPath1043">
   <path d="m-32768 32767h65535v-65535h-65535z"/>
  </clipPath>
  <linearGradient id="linearGradient1051" x2="1" gradientTransform="matrix(96.164 -103.56 103.56 96.164 14.335 201.51)" gradientUnits="userSpaceOnUse">
   <stop stop-color="#fff" offset="0"/>
   <stop stop-color="#fff" stop-opacity=".099992" offset=".91372"/>
   <stop stop-color="#fff" stop-opacity=".099992" offset="1"/>
  </linearGradient>
  <mask id="mask1053" x="0" y="0" width="1" height="1" maskUnits="userSpaceOnUse">
   <g clip-path="url(#clipPath1043)">
    <path d="m-32768 32767h65535v-65535h-65535z" fill="url(#linearGradient1051)"/>
   </g>
  </mask>
  <linearGradient id="linearGradient1071" x2="1" gradientTransform="matrix(96.164 -103.56 103.56 96.164 14.335 201.51)" gradientUnits="userSpaceOnUse">
   <stop stop-color="#2aa4ff" offset="0"/>
   <stop stop-color="#fff" offset=".91372"/>
   <stop stop-color="#fff" offset="1"/>
  </linearGradient>
 </defs>
 <metadata>
  <rdf:RDF>
   <cc:Work rdf:about="">
    <dc:format>image/svg+xml</dc:format>
    <dc:type rdf:resource="http://purl.org/dc/dcmitype/StillImage"/>
    <dc:title/>
   </cc:Work>
  </rdf:RDF>
 </metadata>
 <g transform="translate(-29.312 -59.229)">
  <g transform="matrix(.35278 0 0 -.35278 12.739 135.01)">
   <g clip-path="url(#clipPath821)">
    <path d="m109.43 213.97-44.172-42.019c-4.79-4.553-9.724-8.507-13.063-14.291-2.403-4.163-5.014-10.379-5.209-17.955-0.029-1.11 0.013-2.255 0.094-3.42l45.091 38.302c3.069 2.604 6.841 5.26 11.145 4.268 3.828-0.882 6.198-4.908 7.714-10.745 0 0 6.272-31.686 7.329-34.851 1.055-3.162 4.155-1.23 4.155-1.23l39.918 35.123c-2.618 2.539-5.391 4.949-8.054 7.483l-41.458 39.441c-0.436 0.497-1.04 0.735-1.649 0.735-0.678 0-1.364-0.293-1.841-0.841" fill="url(#linearGradient831)"/>
   </g>
   <g clip-path="url(#clipPath841)">
    <path d="m118.46 105.66c-2.871-2.29-5.393-2.457-7.46-1.689-4.9 1.824-6.109 5.986-7.001 10.384l-7.059 34.909c-1.113 2.617-3.367 1.829-3.367 1.829l-38.921-33.644c1.063-1.241 2.207-2.472 3.444-3.777l26.88-28.386c15.973-16.871 32.642-20.981 49.749-2.915l30.117 31.805c4.999 5.276 8.143 9.466 9.78 16.837 0.603 2.712 0.862 5.312 0.862 7.771 0 5.355-1.227 10.05-2.785 13.879-13.338-11.7-47.54-41.656-54.239-47.003" fill="url(#linearGradient851)"/>
   </g>
   <g clip-path="url(#clipPath861)">
    <g mask="url(#mask885)">
     <g clip-path="url(#clipPath917)">
      <g clip-path="url(#clipPath921)">
       <g mask="url(#mask935)">
        <path d="m100.56 254.48 81.439-87.704-88.138-81.844-81.44 87.705z" fill="url(#linearGradient953)"/>
       </g>
      </g>
     </g>
    </g>
   </g>
   <g clip-path="url(#clipPath979)">
    <g mask="url(#mask1003)">
     <g clip-path="url(#clipPath1035)">
      <g clip-path="url(#clipPath1039)">
       <g mask="url(#mask1053)">
        <path d="m82.487 173.86 42.26-45.51-45.62-42.362-42.26 45.51z" fill="url(#linearGradient1071)"/>
       </g>
      </g>
     </g>
    </g>
   </g>
   <g transform="matrix(1 0 0 -1 201.31 162.67)" fill="#7f7f7f" aria-label="Human Who Codes">
    <path d="m20.911 0h-3.1009v-10.972h-12.117v10.972h-3.085v-23.312h3.085v9.5729h12.117v-9.5729h3.1009z"/>
    <path d="m36.41-2.1468q-2.2422 2.5443-5.0409 2.5443-5.7088 0-5.7088-6.2335v-11.036h3.0055v10.909q0 2.0672 0.73148 2.9736t2.4171 0.90641q2.5125 0 4.5956-2.7033v-12.085h2.9895v16.872h-2.9895z"/>
    <path d="m66.634 0h-3.0055v-10.909q0-2.099-0.60427-2.9895-0.60427-0.8905-2.0195-0.8905-2.1786 0-4.2776 2.7033v12.085h-2.9895v-10.909q0-2.099-0.60427-2.9895-0.60427-0.8905-2.0354-0.8905-2.1786 0-4.2617 2.7033v12.085h-3.0054v-16.872h3.0054v2.1468q2.1308-2.5284 4.7229-2.5284 3.7051 0 4.7229 3.0532 1.6856-1.9877 2.8623-2.5125 1.1767-0.54066 2.3058-0.54066 5.184 0 5.184 6.2176z"/>
    <path d="m82.297-4.4366v-3.7369h-2.0513q-6.5198 0-6.5198 3.5461 0 1.2881 0.95411 1.9877 0.95411 0.68378 2.5761 0.68378 1.4789 0 2.8623-0.66788 1.3835-0.66788 2.1786-1.8128zm0 2.7033q-2.2899 2.1308-5.8996 2.1308-2.5125 0-4.1345-1.3517-1.622-1.3676-1.622-3.5143 0-5.9155 10.193-5.9155h1.463q0-1.8128-0.19082-2.6238-0.19082-0.8269-1.0654-1.3676t-2.7828-0.54066q-4.0073 0-4.1345 2.8623h-2.9895q0.33394-5.1999 7.283-5.1999 3.244 0 5.0568 1.288 1.8128 1.2881 1.8128 5.0568v10.909h-2.9895z"/>
    <path d="m92.105-14.725q2.2422-2.5284 5.0409-2.5284 5.7088 0 5.7088 6.2176v11.036h-3.0055v-10.909q0-2.0672-0.74739-2.9736-0.73148-0.90641-2.4171-0.90641-2.2899 0-4.5797 2.7033v12.085h-3.0055v-16.872h3.0055z"/>
    <path d="m105 0"/>
    <path d="m144.47-23.312-6.4562 23.312h-2.9577l-5.5974-20.259-5.6134 20.259h-2.9578l-6.4402-23.312h3.244l4.6592 18.987 5.2476-18.987h3.7051l5.2476 18.987 4.6592-18.987z"/>
    <path d="m149.42-14.725q2.2422-2.5284 5.0409-2.5284 5.7088 0 5.7088 6.2176v11.036h-3.0054v-10.909q0-2.0672-0.74738-2.9736-0.73149-0.90641-2.4171-0.90641-2.2899 0-4.5797 2.7033v12.085h-3.0054v-23.312h3.0054z"/>
    <path d="m171.36-17.254q3.6097 0 5.7565 2.3058 2.1626 2.3058 2.1626 6.5198 0 4.1981-2.1626 6.5198-2.1468 2.3058-5.7565 2.3058-3.5938 0-5.7565-2.3058-2.1468-2.3217-2.1468-6.5198 0-4.214 2.1468-6.5198 2.1626-2.3058 5.7565-2.3058zm0 15.298q2.1468 0 3.4825-1.622 1.3358-1.6379 1.3358-4.8501 0-3.2281-1.3358-4.8501-1.3358-1.6379-3.4825-1.6379t-3.4825 1.6379q-1.3358 1.622-1.3358 4.8501 0 3.2122 1.3358 4.8501 1.3358 1.622 3.4825 1.622z"/>
    <path d="m181.01 0"/>
    <path d="m202.43 0.39755q-4.9455 0-7.9032-3.244-2.9418-3.2599-2.9418-8.8096 0-5.5497 2.9418-8.7937 2.9577-3.2599 7.9032-3.2599 3.8005 0 6.472 2.0513 2.6715 2.0513 3.0054 5.4066h-3.1804q-0.19082-2.2104-1.9241-3.5143-1.7174-1.304-4.3412-1.304-3.5461 0-5.6134 2.4489-2.0672 2.433-2.0672 6.965 0 4.5161 2.0513 6.965 2.0513 2.4489 5.5656 2.4489 2.7351 0 4.4207-1.3358t1.9082-3.8164h3.1804q-0.33393 3.721-2.9259 5.7565-2.592 2.0354-6.5516 2.0354z"/>
    <path d="m222.62-17.254q3.6097 0 5.7565 2.3058 2.1627 2.3058 2.1627 6.5198 0 4.1981-2.1627 6.5198-2.1468 2.3058-5.7565 2.3058-3.5938 0-5.7565-2.3058-2.1468-2.3217-2.1468-6.5198 0-4.214 2.1468-6.5198 2.1626-2.3058 5.7565-2.3058zm0 15.298q2.1468 0 3.4825-1.622 1.3358-1.6379 1.3358-4.8501 0-3.2281-1.3358-4.8501-1.3358-1.6379-3.4825-1.6379t-3.4825 1.6379q-1.3358 1.622-1.3358 4.8501 0 3.2122 1.3358 4.8501 1.3358 1.622 3.4825 1.622z"/>
    <path d="m245.16-4.8501v-8.0145q-1.94-2.0513-4.4366-2.0513-1.9241 0-3.085 1.6697-1.1449 1.6538-1.1449 4.9455 0 3.1168 1.0813 4.7388 1.0972 1.6061 3.0214 1.6061 2.5125 0 4.5638-2.8941zm0 2.8305q-2.0036 2.4171-4.8183 2.4171-3.3076 0-5.1204-2.3535t-1.8128-6.3448q0-4.1345 2.0195-6.5357 2.0354-2.4171 5.1045-2.4171 2.7351 0 4.6274 1.6856v-7.7442h2.9896v23.312h-2.9896z"/>
    <path d="m260.96 0.39755q-3.721 0-5.9791-2.3217-2.2581-2.3376-2.2581-6.5039 0-4.1345 2.1786-6.4721 2.1944-2.3535 5.7247-2.3535 3.6097 0 5.7565 2.3058 2.1626 2.3058 2.1626 6.5198v0.71558h-12.706q0.19082 2.9259 1.6061 4.3412 1.4312 1.4153 3.5143 1.4153 1.5743 0 2.8305-0.79509 1.2722-0.81099 1.3358-2.2899h3.1009q-0.34984 2.6079-2.3694 4.0232-2.0036 1.4153-4.8978 1.4153zm4.4207-10.463q-0.36574-2.433-1.6379-3.6415t-3.1168-1.2085q-1.7969 0-3.085 1.2085-1.288 1.1926-1.6379 3.6415z"/>
    <path d="m277.31 0.39755q-6.9173 0-7.2353-5.4384h3.0054q0.0318 3.085 4.1981 3.085 1.8605 0 2.8305-0.76329 0.98592-0.77919 0.98592-1.94 0-1.1449-0.95412-1.6061-0.95411-0.47706-3.9437-1.2244-2.9736-0.74739-4.3571-1.6697-1.3676-0.92231-1.3676-3.244 0-2.099 1.7015-3.4666 1.7174-1.3835 4.5797-1.3835 6.6311 0 6.7742 4.7229h-2.9896q-0.15902-2.3853-3.5779-2.3853-1.5107 0-2.5125 0.57247-0.98592 0.57247-0.98592 1.6697 0 0.98592 0.76329 1.4312 0.76329 0.42935 3.8164 1.1767 3.0691 0.73149 4.5479 1.7174 1.4948 0.98592 1.4948 3.403 0 2.3058-1.8446 3.8323-1.8287 1.5107-4.9296 1.5107z"/>
   </g>
   <g transform="matrix(1 0 0 -1 196.75 96.06)" fill="#383737" aria-label="MONEY">
    <path d="m60.528 0h-7.2225v-48.948l-16.408 48.948h-6.83l-16.408-48.948v48.948h-7.2225v-57.545h11.423l15.583 47.967 15.662-47.967h11.423z"/>
    <path d="m101.38-58.526q12.09 0 19.783 8.1646 7.6936 8.1646 7.6936 21.589t-7.6936 21.589q-7.6936 8.1646-19.783 8.1646-12.129 0-19.862-8.1646-7.7328-8.2039-7.7328-21.589 0-13.425 7.7328-21.589 7.7328-8.1646 19.862-8.1646zm-0.0785 52.991q8.6356 0 14.131-6.1235 5.5347-6.1235 5.5347-17.114t-5.4954-17.114-14.013-6.1235q-8.6749 0-14.249 6.1235-5.5347 6.1235-5.5347 17.114 0 10.952 5.5347 17.114 5.5347 6.1235 14.092 6.1235z"/>
    <path d="m182.73 0h-7.8113l-30.146-45.416v45.416h-7.2225v-57.545h7.7721l30.146 45.416v-45.416h7.2618z"/>
    <path d="m238.5 0h-42.903v-57.545h41.569v6.83h-33.954v17.585h31.756v6.83h-31.756v19.469h35.288z"/>
    <path d="m291.5-57.545-22.61 33.169v24.376h-7.6151v-24.376l-22.61-33.169h9.2637l17.193 26.496 17.114-26.496z"/>
   </g>
  </g>
 </g>
</svg>
